<svg xmlns="http://www.w3.org/2000/svg" width="20" height="20" viewBox="0 0 20 20" fill="none">
            <path d="M14.9365 9.71999L14.9364 9.71998L14.9348 9.7242C14.5479 10.7405 14.0604 11.7157 13.4794 12.635L13.4794 12.635L13.4762 12.6401C12.933 13.5232 12.3424 14.3763 11.707 15.1957L11.707 15.1956L11.7021 15.2021C11.2499 15.8051 10.8577 16.2899 10.5168 16.7113C10.4165 16.8352 10.3207 16.9537 10.2291 17.068L10.0135 17.2836C9.94404 17.1991 9.87812 17.1117 9.81598 17.0215C9.68076 16.8193 9.42054 16.4914 9.07755 16.0593C8.87647 15.8059 8.64694 15.5167 8.39748 15.196C7.76492 14.3752 7.17467 13.5227 6.62902 12.6417C6.07969 11.7269 5.58901 10.7781 5.15993 9.80103L5.15683 9.79399L5.15353 9.78705C4.73775 8.91422 4.51553 7.96184 4.50208 6.99513L4.50213 6.99513L4.50193 6.98811C4.48191 6.27184 4.61773 5.55978 4.89999 4.90117C5.18225 4.24255 5.60422 3.65312 6.1367 3.17364L6.14847 3.16305L6.15954 3.15174C7.17413 2.11464 8.55812 1.5215 10.0088 1.50204L10.0088 1.50209L10.0161 1.50189C10.7324 1.48186 11.4444 1.61768 12.103 1.89994C12.7617 2.18221 13.3511 2.60417 13.8306 3.13666L13.8391 3.14611L13.8481 3.15513C14.8693 4.17925 15.4607 5.55452 15.5019 6.99981C15.4673 7.93179 15.2761 8.85134 14.9365 9.71999ZM9.52431 4.55384C9.04307 4.65333 8.60193 4.89241 8.25593 5.24105C8.01217 5.46358 7.81875 5.73569 7.68868 6.03918C7.55839 6.34318 7.49475 6.67152 7.50197 7.00208C7.49475 7.33264 7.55839 7.66098 7.68868 7.96499C7.81875 8.26847 8.01217 8.54058 8.25593 8.76311C8.60193 9.11175 9.04307 9.35083 9.52431 9.45032C10.0106 9.55085 10.5158 9.50427 10.9756 9.31653C11.4353 9.1288 11.8287 8.8084 12.1056 8.3962C12.3825 7.984 12.5304 7.49866 12.5304 7.00208C12.5304 6.5055 12.3825 6.02016 12.1056 5.60796C11.8287 5.19576 11.4353 4.87536 10.9756 4.68763C10.5158 4.49989 10.0106 4.45332 9.52431 4.55384Z" stroke="#8599AC"/>
          </svg>